HIERARCHY
ROOT Hips
{
  OFFSET 5.72205e-005 65.662 3.42586
  CHANNELS 6 Xposition Yposition Zposition Zrotation Xrotation Yrotation
  JOINT Chest
  {
    OFFSET 0 8.7983 -4.7612
    CHANNELS 6 Xposition Yposition Zposition Zrotation Xrotation Yrotation
    JOINT Chest2
    {
      OFFSET 0 8.0291 0.4195
      CHANNELS 6 Xposition Yposition Zposition Zrotation Xrotation Yrotation
      JOINT Chest3
      {
        OFFSET 0 9.9351 -2.2114
        CHANNELS 6 Xposition Yposition Zposition Zrotation Xrotation Yrotation
        JOINT Neck
        {
          OFFSET 0 22.3885 -0.4656
          CHANNELS 6 Xposition Yposition Zposition Zrotation Xrotation Yrotation
          JOINT Head
          {
            OFFSET -0.0001 12.643 3.4389
            CHANNELS 6 Xposition Yposition Zposition Zrotation Xrotation Yrotation
            End Site
            {
              OFFSET 0.0001 17.6655 0.5274
            }
          }
        }
        JOINT LeftCollar
        {
          OFFSET 2.2603 21.606 7.4023
          CHANNELS 6 Xposition Yposition Zposition Zrotation Xrotation Yrotation
          JOINT LeftShoulder
          {
            OFFSET 13.5163 -1.1332 -5.0146
            CHANNELS 6 Xposition Yposition Zposition Zrotation Xrotation Yrotation
            JOINT LeftElbow
            {
              OFFSET -0.0995 -28.05 -0.2431
              CHANNELS 6 Xposition Yposition Zposition Zrotation Xrotation Yrotation
              JOINT LeftWrist
              {
                OFFSET 0.0679 -23.3996 -0.1402
                CHANNELS 6 Xposition Yposition Zposition Zrotation Xrotation Yrotation
                JOINT LeftFinger1
                {
                  OFFSET 0.7932 -9.069 2.5189
                  CHANNELS 6 Xposition Yposition Zposition Zrotation Xrotation Yrotation
                  JOINT LeftFinger11
                  {
                    OFFSET -0.8272 -3.3923 0.5977
                    CHANNELS 6 Xposition Yposition Zposition Zrotation Xrotation Yrotation
                    JOINT LeftFinger12
                    {
                      OFFSET -0.5649 -2.3158 0.4082
                      CHANNELS 6 Xposition Yposition Zposition Zrotation Xrotation Yrotation
                      End Site
                      {
                        OFFSET -0.4919 -1.6479 0.2673
                      }
                    }
                  }
                }
                JOINT LeftFinger2
                {
                  OFFSET 0.9159 -9.2044 0.2193
                  CHANNELS 6 Xposition Yposition Zposition Zrotation Xrotation Yrotation
                  JOINT LeftFinger21
                  {
                    OFFSET 0.0117 -4.1944 -0.0248
                    CHANNELS 6 Xposition Yposition Zposition Zrotation Xrotation Yrotation
                    JOINT LeftFinger22
                    {
                      OFFSET 0.0071 -2.3249 -0.0142
                      CHANNELS 6 Xposition Yposition Zposition Zrotation Xrotation Yrotation
                      End Site
                      {
                        OFFSET -0.1475 -2.0882 0.0028
                      }
                    }
                  }
                }
                JOINT LeftFinger3
                {
                  OFFSET 0.6113 -8.7231 -2.0637
                  CHANNELS 6 Xposition Yposition Zposition Zrotation Xrotation Yrotation
                  JOINT LeftFinger31
                  {
                    OFFSET -0.1927 -3.8059 -0.2383
                    CHANNELS 6 Xposition Yposition Zposition Zrotation Xrotation Yrotation
                    JOINT LeftFinger32
                    {
                      OFFSET -0.1091 -2.1688 -0.1362
                      CHANNELS 6 Xposition Yposition Zposition Zrotation Xrotation Yrotation
                      End Site
                      {
                        OFFSET -0.2358 -1.9176 -0.0906
                      }
                    }
                  }
                }
                JOINT LeftFinger4
                {
                  OFFSET -0.6151 -8.0947 -3.5641
                  CHANNELS 6 Xposition Yposition Zposition Zrotation Xrotation Yrotation
                  JOINT LeftFinger41
                  {
                    OFFSET -0.4882 -2.341 -0.6462
                    CHANNELS 6 Xposition Yposition Zposition Zrotation Xrotation Yrotation
                    JOINT LeftFinger42
                    {
                      OFFSET -0.3575 -1.7167 -0.4742
                      CHANNELS 6 Xposition Yposition Zposition Zrotation Xrotation Yrotation
                      End Site
                      {
                        OFFSET -0.4187 -1.5237 -0.3496
                      }
                    }
                  }
                }
                JOINT LeftFinger0
                {
                  OFFSET -1.42 -1.8761 1.4223
                  CHANNELS 6 Xposition Yposition Zposition Zrotation Xrotation Yrotation
                  JOINT LeftFinger01
                  {
                    OFFSET -1.1471 -3.4929 2.6334
                    CHANNELS 6 Xposition Yposition Zposition Zrotation Xrotation Yrotation
                    JOINT LeftFinger02
                    {
                      OFFSET -0.823 -2.3 1.6571
                      CHANNELS 6 Xposition Yposition Zposition Zrotation Xrotation Yrotation
                      End Site
                      {
                        OFFSET -0.5822 -1.6914 1.1582
                      }
                    }
                  }
                }
              }
            }
          }
        }
        JOINT RightCollar
        {
          OFFSET -2.2603 21.606 7.4023
          CHANNELS 6 Xposition Yposition Zposition Zrotation Xrotation Yrotation
          JOINT RightShoulder
          {
            OFFSET -13.5187 -1.1334 -5.0155
            CHANNELS 6 Xposition Yposition Zposition Zrotation Xrotation Yrotation
            JOINT RightElbow
            {
              OFFSET 0.0994 -28.0499 -0.2431
              CHANNELS 6 Xposition Yposition Zposition Zrotation Xrotation Yrotation
              JOINT RightWrist
              {
                OFFSET -0.0679 -23.3996 -0.1402
                CHANNELS 6 Xposition Yposition Zposition Zrotation Xrotation Yrotation
                JOINT RightFinger1
                {
                  OFFSET -0.7932 -9.0691 2.5189
                  CHANNELS 6 Xposition Yposition Zposition Zrotation Xrotation Yrotation
                  JOINT RightFinger11
                  {
                    OFFSET 0.8272 -3.3923 0.5977
                    CHANNELS 6 Xposition Yposition Zposition Zrotation Xrotation Yrotation
                    JOINT RightFinger12
                    {
                      OFFSET 0.565 -2.3158 0.4082
                      CHANNELS 6 Xposition Yposition Zposition Zrotation Xrotation Yrotation
                      End Site
                      {
                        OFFSET 0.4919 -1.6479 0.2673
                      }
                    }
                  }
                }
                JOINT RightFinger2
                {
                  OFFSET -0.916 -9.2044 0.2193
                  CHANNELS 6 Xposition Yposition Zposition Zrotation Xrotation Yrotation
                  JOINT RightFinger21
                  {
                    OFFSET -0.0117 -4.1944 -0.0248
                    CHANNELS 6 Xposition Yposition Zposition Zrotation Xrotation Yrotation
                    JOINT RightFinger22
                    {
                      OFFSET -0.0071 -2.3249 -0.0142
                      CHANNELS 6 Xposition Yposition Zposition Zrotation Xrotation Yrotation
                      End Site
                      {
                        OFFSET 0.1475 -2.0882 0.0028
                      }
                    }
                  }
                }
                JOINT RightFinger3
                {
                  OFFSET -0.6113 -8.7231 -2.0637
                  CHANNELS 6 Xposition Yposition Zposition Zrotation Xrotation Yrotation
                  JOINT RightFinger31
                  {
                    OFFSET 0.1927 -3.8059 -0.2383
                    CHANNELS 6 Xposition Yposition Zposition Zrotation Xrotation Yrotation
                    JOINT RightFinger32
                    {
                      OFFSET 0.1091 -2.1688 -0.1362
                      CHANNELS 6 Xposition Yposition Zposition Zrotation Xrotation Yrotation
                      End Site
                      {
                        OFFSET 0.2358 -1.9176 -0.0906
                      }
                    }
                  }
                }
                JOINT RightFinger4
                {
                  OFFSET 0.6151 -8.0947 -3.564
                  CHANNELS 6 Xposition Yposition Zposition Zrotation Xrotation Yrotation
                  JOINT RightFinger41
                  {
                    OFFSET 0.4882 -2.341 -0.6462
                    CHANNELS 6 Xposition Yposition Zposition Zrotation Xrotation Yrotation
                    JOINT RightFinger42
                    {
                      OFFSET 0.3574 -1.7166 -0.4742
                      CHANNELS 6 Xposition Yposition Zposition Zrotation Xrotation Yrotation
                      End Site
                      {
                        OFFSET 0.4187 -1.5237 -0.3496
                      }
                    }
                  }
                }
                JOINT RightFinger0
                {
                  OFFSET 1.4199 -1.8761 1.4221
                  CHANNELS 6 Xposition Yposition Zposition Zrotation Xrotation Yrotation
                  JOINT RightFinger01
                  {
                    OFFSET 1.1472 -3.4929 2.6336
                    CHANNELS 6 Xposition Yposition Zposition Zrotation Xrotation Yrotation
                    JOINT RightFinger02
                    {
                      OFFSET 0.8229 -2.3 1.6571
                      CHANNELS 6 Xposition Yposition Zposition Zrotation Xrotation Yrotation
                      End Site
                      {
                        OFFSET 0.5822 -1.6914 1.1582
                      }
                    }
                  }
                }
              }
            }
          }
        }
      }
    }
  }
  JOINT RightHip
  {
    OFFSET -9.412 3.9771 -0.7758
    CHANNELS 6 Xposition Yposition Zposition Zrotation Xrotation Yrotation
    JOINT RightKnee
    {
      OFFSET -0.7531 -40.938 0
      CHANNELS 6 Xposition Yposition Zposition Zrotation Xrotation Yrotation
      JOINT RightAnkle
      {
        OFFSET 0 -40.1986 0
        CHANNELS 6 Xposition Yposition Zposition Zrotation Xrotation Yrotation
        JOINT RightToe
        {
          OFFSET 0 -4.4182 9.239
          CHANNELS 6 Xposition Yposition Zposition Zrotation Xrotation Yrotation
          End Site
          {
            OFFSET 0 0 6.1981
          }
        }
      }
    }
  }
  JOINT LeftHip
  {
    OFFSET 9.4119 3.9773 -0.7758
    CHANNELS 6 Xposition Yposition Zposition Zrotation Xrotation Yrotation
    JOINT LeftKnee
    {
      OFFSET 0.7532 -40.9383 0
      CHANNELS 6 Xposition Yposition Zposition Zrotation Xrotation Yrotation
      JOINT LeftAnkle
      {
        OFFSET 0 -40.1986 0
        CHANNELS 6 Xposition Yposition Zposition Zrotation Xrotation Yrotation
        JOINT LeftToe
        {
          OFFSET 0 -4.4182 9.239
          CHANNELS 6 Xposition Yposition Zposition Zrotation Xrotation Yrotation
          End Site
          {
            OFFSET 0 0 6.1981
          }
        }
      }
    }
  }
}
MOTION
Frames:	4
Frame Time:	0.0333333
5.72205e-005 65.662 3.42586 0 0 -0 0 8.7983 -4.7612 0 0 -0 0 8.0291 0.4195 0 0 -0 0 9.9351 -2.2114 0 0 -0 0 22.3885 -0.4656 0 0 -0 -0.0001 12.643 3.4389 0 0 -0 2.2603 21.606 7.4023 0 0 -12.5014 13.5163 -1.1332 -5.0146 88.1196 14.2451 10.6914 -0.0995 -28.05 -0.2431 -0.00160068 -0.00239207 0.000740045 0.0679 -23.3996 -0.1402 -8.4365e-005 7.00714e-005 -9.52055e-007 0.7932 -9.069 2.5189 9.93923e-017 -1.98785e-016 -1.59028e-015 -0.8272 -3.3923 0.5977 9.93923e-017 -5.96354e-016 -1.59028e-015 -0.5649 -2.3158 0.4082 -9.93923e-017 -5.96354e-016 -1.59028e-015 0.9159 -9.2044 0.2193 9.93923e-017 -1.98785e-016 -1.59028e-015 0.0117 -4.1944 -0.0248 -0.0128176 0.00232552 8.52707e-005 0.0071 -2.3249 -0.0142 9.93923e-017 5.96354e-016 -0 0.6113 -8.7231 -2.0637 9.93923e-017 -1.98785e-016 -1.59028e-015 -0.1927 -3.8059 -0.2383 -0.0160551 0.00299681 0.000857156 -0.1091 -2.1688 -0.1362 -2.48481e-016 0 3.18055e-015 -0.6151 -8.0947 -3.5641 9.93923e-017 -1.98785e-016 -1.59028e-015 -0.4882 -2.341 -0.6462 -0.0125865 0.0031206 0.00282719 -0.3575 -1.7167 -0.4742 0 1.98785e-016 -0 -1.42 -1.8761 1.4223 9.93923e-017 -1.98785e-016 -1.59028e-015 -1.1471 -3.4929 2.6334 9.93923e-017 -5.96354e-016 -1.59028e-015 -0.823 -2.3 1.6571 -9.93923e-017 -5.96354e-016 -1.59028e-015 -2.2603 21.606 7.4023 -0.865644 0.16582 7.03859 -13.5187 -1.1334 -5.0155 -88.0329 10.2057 -10.5567 0.0994 -28.0499 -0.2431 0.0015593 -0.00248883 -0.000788628 -0.0679 -23.3996 -0.1402 7.87605e-005 4.10553e-005 1.24965e-005 -0.7932 -9.0691 2.5189 -3.97569e-016 -7.95139e-016 3.18055e-015 0.8272 -3.3923 0.5977 -1.98785e-016 -3.97569e-016 3.18055e-015 0.565 -2.3158 0.4082 -1.98785e-016 0 3.18055e-015 -0.916 -9.2044 0.2193 -3.97569e-016 -7.95139e-016 3.18055e-015 -0.0117 -4.1944 -0.0248 0.0129473 0.00231697 -8.70038e-005 -0.0071 -2.3249 -0.0142 9.93923e-017 -7.95139e-016 1.59028e-015 -0.6113 -8.7231 -2.0637 -3.97569e-016 -7.95139e-016 3.18055e-015 0.1927 -3.8059 -0.2383 0.0163314 0.00303369 -0.000872333 0.1091 -2.1688 -0.1362 3.97569e-016 7.95139e-016 -3.18055e-015 0.6151 -8.0947 -3.564 -3.97569e-016 -7.95139e-016 3.18055e-015 0.4882 -2.341 -0.6462 0.0145763 0.00367772 -0.00326275 0.3574 -1.7166 -0.4742 9.93923e-017 -3.97569e-016 -0 1.4199 -1.8761 1.4221 -3.97569e-016 -7.95139e-016 3.18055e-015 1.1472 -3.4929 2.6336 -1.98785e-016 -3.97569e-016 3.18055e-015 0.8229 -2.3 1.6571 -1.98785e-016 0 3.18055e-015 -9.412 3.9771 -0.7758 3.42482 1.32465 -0.0626183 -0.7531 -40.938 0 0.000117508 0.717283 0.000978199 0 -40.1986 0 -3.4257 -2.04197 -0.0604716 8.88178e-016 -4.4182 9.239 6.47761e-025 0 -0 9.4119 3.9773 -0.7758 -3.42483 1.34017 0.0627307 0.7532 -40.9383 -2.22045e-016 -0.000193936 0.682302 -0.0013703 -8.88179e-016 -40.1986 0 3.42574 -2.02253 0.0595886 -8.88178e-016 -4.4182 9.239 -8.45714e-024 0 -7.40531e-025 
-39.3777 27.9587 16.9653 -31.1112 0.000531047 71.8482 0 8.7983 -4.7612 -0.250623 7.50843 -0.225027 0 8.0291 0.4195 -0.477438 15.0178 -0.422117 -3.55271e-015 9.9351 -2.2114 -0.477427 15.0178 -0.422128 0 22.3885 -0.4656 -15.7911 -36.2211 6.67879 -0.0001 12.643 3.4389 -7.22496e-006 4.40107 2.23851e-005 2.2603 21.606 7.4023 -7.22982 -4.34602 11.0868 13.5163 -1.1332 -5.0146 15.1112 -38.8882 15.11 -0.0995 -28.05 -0.2431 -80.0123 -38.3299 -41.9543 0.0679 -23.3996 -0.1402 -14.8048 7.93007 34.2954 0.7932 -9.069 2.5189 2.64834e-031 6.36111e-015 -2.38542e-015 -0.8272 -3.3923 0.5977 -6.36111e-015 -3.18055e-015 -0 -0.5649 -2.3158 0.4082 -3.18055e-015 3.18055e-015 -2.38542e-015 0.9159 -9.2044 0.2193 2.64834e-031 6.36111e-015 -2.38542e-015 0.0117 -4.1944 -0.0248 -0.0128257 0.00232581 9.21572e-005 0.0071 -2.3249 -0.0142 -3.18055e-015 0 1.59028e-015 0.6113 -8.7231 -2.0637 2.64834e-031 6.36111e-015 -2.38542e-015 -0.1927 -3.8059 -0.2383 -0.0160444 0.00299621 0.000857708 -0.1091 -2.1688 -0.1362 -6.36111e-015 6.36111e-015 7.95139e-016 -0.6151 -8.0947 -3.5641 2.64834e-031 6.36111e-015 -2.38542e-015 -0.4882 -2.341 -0.6462 -0.0125811 0.00311731 0.00283834 -0.3575 -1.7167 -0.4742 3.18055e-015 0 5.56597e-015 -1.42 -1.8761 1.4223 2.64834e-031 6.36111e-015 -2.38542e-015 -1.1471 -3.4929 2.6334 -6.36111e-015 -3.18055e-015 -0 -0.823 -2.3 1.6571 -3.18055e-015 3.18055e-015 -2.38542e-015 -2.2603 21.606 7.4023 -30.6248 -1.46346 12.5704 -13.5187 -1.1334 -5.0155 -124.196 -39.7045 -44.6524 0.0994 -28.0499 -0.2431 -2.20283 -18.1315 -83.3326 -0.0679 -23.3996 -0.1402 -17.2104 0.765054 3.40348 -0.7932 -9.0691 2.5189 -6.36111e-015 -3.18055e-015 -6.36111e-015 0.8272 -3.3923 0.5977 -2.64834e-031 -4.77083e-015 -3.18055e-015 0.565 -2.3158 0.4082 -1.76556e-031 3.18055e-015 3.18055e-015 -0.916 -9.2044 0.2193 -6.36111e-015 -3.18055e-015 -6.36111e-015 -0.0117 -4.1944 -0.0248 0.0129476 0.00232091 -8.80189e-005 -0.0071 -2.3249 -0.0142 -6.36111e-015 1.27222e-014 1.59028e-014 -0.6113 -8.7231 -2.0637 -6.36111e-015 -3.18055e-015 -6.36111e-015 0.1927 -3.8059 -0.2383 0.0163791 0.00305035 -0.000876973 0.1091 -2.1688 -0.1362 -6.36111e-015 1.59028e-015 6.36111e-015 0.6151 -8.0947 -3.564 -6.36111e-015 -3.18055e-015 -6.36111e-015 0.4882 -2.341 -0.6462 0.0146409 0.00370025 -0.0032756 0.3574 -1.7166 -0.4742 -3.18055e-015 4.77083e-015 9.54166e-015 1.4199 -1.8761 1.4221 -6.36111e-015 -3.18055e-015 -6.36111e-015 1.1472 -3.4929 2.6336 -2.64834e-031 -4.77083e-015 -3.18055e-015 0.8229 -2.3 1.6571 -1.76556e-031 3.18055e-015 3.18055e-015 -9.412 3.9771 -0.7758 -0.799412 -63.6134 -6.46979 -0.7531 -40.938 -3.55271e-015 -173.768 68.9926 173.648 7.10543e-015 -40.1986 -8.88178e-016 0.854123 34.0143 -7.4449 0 -4.4182 9.239 -3.60297e-006 -1.10472e-005 3.87187e-006 9.4119 3.9773 -0.7758 -1.66872 -60.183 6.41134 0.7532 -40.9383 0 173.746 70.9329 -173.447 -3.55271e-015 -40.1986 0 13.6646 31.9428 4.85146 -7.10543e-015 -4.4182 9.239 -1.97378e-006 -8.24269e-006 -3.63073e-006 
-58.3455 11.6611 21.6788 -45.1112 -0.000605537 104.18 1.77636e-015 8.7983 -4.7612 -0.299515 10.8414 -0.443968 3.55271e-015 8.0291 0.4195 -0.526232 21.6846 -0.852548 1.77636e-015 9.9351 -2.2114 -0.526225 21.6847 -0.852555 -1.77636e-015 22.3885 -0.4656 -18.3737 -51.7713 12.9295 -0.0001 12.643 3.4389 3.71077e-006 6.5909 -1.06968e-005 2.2603 21.606 7.4023 -9.33333 -5.65796 21.6177 13.5163 -1.1332 -5.0146 -10.7329 -65.1536 18.976 -0.0995 -28.05 -0.2431 -105.14 -60.7663 -51.3637 0.0679 -23.3996 -0.1402 -21.377 11.3535 49.7826 0.7932 -9.069 2.5189 -9.74045e-015 -1.59028e-015 1.59028e-015 -0.8272 -3.3923 0.5977 -6.55989e-015 -7.95139e-016 -1.59028e-015 -0.5649 -2.3158 0.4082 -6.55989e-015 0 -0 0.9159 -9.2044 0.2193 -9.74045e-015 -1.59028e-015 1.59028e-015 0.0117 -4.1944 -0.0248 -0.0128311 0.00232552 8.7536e-005 0.0071 -2.3249 -0.0142 -1.08791e-006 2.60518e-007 -1.05797e-006 0.6113 -8.7231 -2.0637 -9.74045e-015 -1.59028e-015 1.59028e-015 -0.1927 -3.8059 -0.2383 -0.0160535 0.00299538 0.000862988 -0.1091 -2.1688 -0.1362 1.68967e-015 -2.22639e-014 1.59028e-015 -0.6151 -8.0947 -3.5641 -9.74045e-015 -1.59028e-015 1.59028e-015 -0.4882 -2.341 -0.6462 -0.0125994 0.00312549 0.00282877 -0.3575 -1.7167 -0.4742 8.34658e-006 3.89884e-007 -2.32787e-006 -1.42 -1.8761 1.4223 -9.74045e-015 -1.59028e-015 1.59028e-015 -1.1471 -3.4929 2.6334 -6.55989e-015 -7.95139e-016 -1.59028e-015 -0.823 -2.3 1.6571 -6.55989e-015 0 -0 -2.2603 21.606 7.4023 -43.7014 -2.15278 14.8617 -13.5187 -1.1334 -5.0155 -131.605 -62.7686 -52.2428 0.0994 -28.0499 -0.2431 -5.08197 -27.3213 -120.977 -0.0679 -23.3996 -0.1402 -25.1175 1.23754 4.66339 -0.7932 -9.0691 2.5189 6.36111e-015 1.59028e-014 -9.54166e-015 0.8272 -3.3923 0.5977 -1.63026e-006 5.27248e-006 6.26506e-008 0.565 -2.3158 0.4082 3.18055e-015 0 -0 -0.916 -9.2044 0.2193 6.36111e-015 1.59028e-014 -9.54166e-015 -0.0117 -4.1944 -0.0248 0.0129422 0.00231911 -8.94305e-005 -0.0071 -2.3249 -0.0142 0 3.18055e-015 -0 -0.6113 -8.7231 -2.0637 6.36111e-015 1.59028e-014 -9.54166e-015 0.1927 -3.8059 -0.2383 0.016339 0.00303558 -0.000867755 0.1091 -2.1688 -0.1362 -0 -2.38542e-015 -0 0.6151 -8.0947 -3.564 6.36111e-015 1.59028e-014 -9.54166e-015 0.4882 -2.341 -0.6462 0.0145832 0.00368094 -0.00326613 0.3574 -1.7166 -0.4742 -5.52508e-006 -1.46726e-006 1.33083e-006 1.4199 -1.8761 1.4221 6.36111e-015 1.59028e-014 -9.54166e-015 1.1472 -3.4929 2.6336 -1.63026e-006 5.27248e-006 6.26506e-008 0.8229 -2.3 1.6571 3.18055e-015 0 -0 -9.412 3.9771 -0.7758 -99.6179 -87.5675 -111.248 -0.7531 -40.938 -3.55271e-015 -176.309 22.2575 170.323 3.55271e-015 -40.1986 -3.55271e-015 11.3018 49.6795 -18.3644 5.32907e-015 -4.4182 9.239 -1.62449e-006 1.96841e-006 5.25972e-007 9.4119 3.9773 -0.7758 27.7521 -83.057 40.5078 0.7532 -40.9383 0 176.433 23.616 -171.704 -1.77636e-015 -40.1986 0 12.5253 45.439 13.4532 -3.55271e-015 -4.4182 9.239 -1.98178e-006 -7.14833e-006 7.66281e-006 
-54.0713 15.1762 20.668 -42.0002 -0.00027688 96.995 -1.77636e-015 8.7983 -4.7612 -0.292781 10.0092 -0.381766 -1.77636e-015 8.0291 0.4195 -0.529003 20.0202 -0.727791 0 9.9351 -2.2114 -0.529024 20.0201 -0.727785 1.77636e-015 22.3885 -0.4656 -17.9827 -47.6515 11.5097 -0.0001 12.643 3.4389 8.97809e-006 6.56949 -1.07044e-005 2.2603 21.606 7.4023 -8.83834 -5.34136 18.8919 13.5163 -1.1332 -5.0146 -5.6212 -59.4052 17.5117 -0.0995 -28.05 -0.2431 -99.5973 -55.9199 -49.2883 0.0679 -23.3996 -0.1402 -20.2334 10.5809 46.0177 0.7932 -9.069 2.5189 7.95139e-016 -3.18055e-015 -7.95139e-016 -0.8272 -3.3923 0.5977 -1.59028e-015 -1.59028e-015 -0 -0.5649 -2.3158 0.4082 4.96962e-015 0 -1.59028e-015 0.9159 -9.2044 0.2193 7.95139e-016 -3.18055e-015 -7.95139e-016 0.0117 -4.1944 -0.0248 -0.0128205 0.00232751 8.8756e-005 0.0071 -2.3249 -0.0142 -1.07344e-014 -1.59028e-015 -1.59028e-015 0.6113 -8.7231 -2.0637 7.95139e-016 -3.18055e-015 -7.95139e-016 -0.1927 -3.8059 -0.2383 -0.0160562 0.0029925 0.000857579 -0.1091 -2.1688 -0.1362 -9.74045e-015 0 -3.18055e-015 -0.6151 -8.0947 -3.5641 7.95139e-016 -3.18055e-015 -7.95139e-016 -0.4882 -2.341 -0.6462 -0.0125892 0.00312489 0.00282685 -0.3575 -1.7167 -0.4742 -6.75868e-015 1.59028e-015 1.59028e-015 -1.42 -1.8761 1.4223 7.95139e-016 -3.18055e-015 -7.95139e-016 -1.1471 -3.4929 2.6334 -1.59028e-015 -1.59028e-015 -0 -0.823 -2.3 1.6571 4.96962e-015 0 -1.59028e-015 -2.2603 21.606 7.4023 -40.3199 -1.92779 13.9053 -13.5187 -1.1334 -5.0155 -131.03 -57.8538 -51.6327 0.0994 -28.0499 -0.2431 -3.9863 -26.6126 -112.47 -0.0679 -23.3996 -0.1402 -23.8196 1.05687 4.33993 -0.7932 -9.0691 2.5189 -9.2692e-031 5.56597e-015 9.54166e-015 0.8272 -3.3923 0.5977 1.59028e-015 5.96354e-015 9.54166e-015 0.565 -2.3158 0.4082 0 8.74653e-015 -0 -0.916 -9.2044 0.2193 -9.2692e-031 5.56597e-015 9.54166e-015 -0.0117 -4.1944 -0.0248 0.0129552 0.00231333 -9.21229e-005 -0.0071 -2.3249 -0.0142 -1.59028e-015 -3.97569e-015 -6.36111e-015 -0.6113 -8.7231 -2.0637 -9.2692e-031 5.56597e-015 9.54166e-015 0.1927 -3.8059 -0.2383 0.0163243 0.00302887 -0.000880421 0.1091 -2.1688 -0.1362 -0 -1.98785e-015 -0 0.6151 -8.0947 -3.564 -9.2692e-031 5.56597e-015 9.54166e-015 0.4882 -2.341 -0.6462 0.0145491 0.00366953 -0.0032568 0.3574 -1.7166 -0.4742 1.0152e-030 -9.14409e-015 6.36111e-015 1.4199 -1.8761 1.4221 -9.2692e-031 5.56597e-015 9.54166e-015 1.1472 -3.4929 2.6336 1.59028e-015 5.96354e-015 9.54166e-015 0.8229 -2.3 1.6571 0 8.74653e-015 -0 -9.412 3.9771 -0.7758 -21.3857 -84.5272 -30.4537 -0.7531 -40.938 -3.55271e-015 -175.669 32.5039 172.155 0 -40.1986 1.77636e-015 7.712 46.7687 -14.6505 0 -4.4182 9.239 -1.50051e-006 -1.48144e-006 8.06646e-007 9.4119 3.9773 -0.7758 11.558 -79.404 22.6914 0.7532 -40.9383 7.10543e-015 175.829 34.0251 -172.879 8.88178e-016 -40.1986 -3.55271e-015 13.5262 43.3195 10.5622 0 -4.4182 9.239 8.46556e-006 2.73963e-006 2.13114e-005 
